# This file uses centimeters as units for non-parametric coordinates.

mtllib frame.mtl
g default
v -12.441622 -11.992923 0.144970
v 12.441622 -11.992923 0.144970
v 12.441622 11.992923 0.144970
v -12.441622 11.992923 0.144970
v -14.084856 -13.444346 0.500000
v 14.084856 -13.444346 0.500000
v -14.084856 13.444346 0.500000
v 14.084856 13.444346 0.500000
v -14.084855 13.444348 -0.500000
v 14.084855 13.444348 -0.500000
v -14.084855 -13.444348 -0.500000
v 14.084855 -13.444348 -0.500000
v -12.441622 -11.992923 0.500000
v 12.441622 -11.992923 0.500000
v 12.441622 11.992923 0.500000
v -12.441622 11.992923 0.500000
v -12.441622 -11.992923 0.144970
v 12.441622 -11.992923 0.144970
v 12.441622 11.992923 0.144970
v -12.441622 11.992923 0.144970
v -13.077888 12.554920 0.500000
v 13.077888 12.554920 0.500000
v 13.077888 -12.554920 0.500000
v -13.077888 -12.554920 0.500000
v -13.413544 12.851396 0.810277
v 13.413544 12.851396 0.810277
v 13.413544 -12.851396 0.810277
v -13.413544 -12.851396 0.810277
v -13.749200 13.147871 0.810277
v 13.749200 13.147871 0.810277
v 13.749200 -13.147871 0.810277
v -13.749200 -13.147871 0.810277
v -12.761067 12.275081 0.500000
v 12.761067 12.275081 0.500000
v 12.761067 -12.275081 0.500000
v -12.761067 -12.275081 0.500000
v -12.906988 12.403969 0.430070
v 12.906988 12.403969 0.430070
v 12.906988 -12.403969 0.430070
v -12.906988 -12.403969 0.430070
v -14.084855 13.444348 -0.500000
v 14.084855 13.444348 -0.500000
v 14.084855 -13.444348 -0.500000
v -14.084855 -13.444348 -0.500000
vt 0.014850 0.963087
vt 0.985150 0.963087
vt 0.985150 0.963087
vt 0.014850 0.963087
vt 0.014850 0.036913
vt 0.985150 0.036913
vt 0.985150 0.036913
vt 0.014850 0.036913
vt 0.014850 0.036913
vt 0.014850 0.036913
vt 0.014850 0.963087
vt 0.014850 0.963087
vt 0.985150 0.036913
vt 0.985150 0.036913
vt 0.985150 0.963087
vt 0.985150 0.963087
vt 0.014850 0.036913
vt 0.985150 0.036913
vt 0.973842 0.047190
vt 0.026666 0.047190
vt 0.985150 0.036913
vt 0.985150 0.963087
vt 0.973842 0.952941
vt 0.973842 0.047190
vt 0.985150 0.963087
vt 0.014850 0.963087
vt 0.026666 0.952941
vt 0.973842 0.952941
vt 0.014850 0.963087
vt 0.014850 0.036913
vt 0.026666 0.047190
vt 0.026666 0.952941
vt 0.928803 0.086972
vt 0.071705 0.086972
vt 0.071705 0.086972
vt 0.928803 0.086972
vt 0.071705 0.086972
vt 0.071705 0.913159
vt 0.071705 0.913159
vt 0.071705 0.086972
vt 0.071705 0.913159
vt 0.928803 0.913159
vt 0.928803 0.913159
vt 0.071705 0.913159
vt 0.928803 0.913159
vt 0.928803 0.086972
vt 0.928803 0.086972
vt 0.928803 0.913159
vt 0.950719 0.932517
vt 0.049789 0.932517
vt 0.055676 0.927317
vt 0.944832 0.927317
vt 0.950719 0.067614
vt 0.950719 0.932517
vt 0.944832 0.927317
vt 0.944832 0.072814
vt 0.049789 0.067614
vt 0.950719 0.067614
vt 0.944832 0.072814
vt 0.055676 0.072814
vt 0.049789 0.932517
vt 0.049789 0.067614
vt 0.055676 0.072814
vt 0.055676 0.927317
vt 0.962280 0.942729
vt 0.038228 0.942729
vt 0.049789 0.932517
vt 0.950719 0.932517
vt 0.962280 0.057402
vt 0.962280 0.942729
vt 0.950719 0.932517
vt 0.950719 0.067614
vt 0.038228 0.057402
vt 0.962280 0.057402
vt 0.950719 0.067614
vt 0.049789 0.067614
vt 0.038228 0.942729
vt 0.038228 0.057402
vt 0.049789 0.067614
vt 0.049789 0.932517
vt 0.973842 0.952941
vt 0.026666 0.952941
vt 0.038228 0.942729
vt 0.962280 0.942729
vt 0.973842 0.047190
vt 0.973842 0.952941
vt 0.962280 0.942729
vt 0.962280 0.057402
vt 0.026666 0.047190
vt 0.973842 0.047190
vt 0.962280 0.057402
vt 0.038228 0.057402
vt 0.026666 0.952941
vt 0.026666 0.047190
vt 0.038228 0.057402
vt 0.038228 0.942729
vt 0.939806 0.922878
vt 0.060702 0.922878
vt 0.071705 0.913159
vt 0.928803 0.913159
vt 0.939806 0.077253
vt 0.939806 0.922878
vt 0.928803 0.913159
vt 0.928803 0.086972
vt 0.060702 0.077253
vt 0.939806 0.077253
vt 0.928803 0.086972
vt 0.071705 0.086972
vt 0.060702 0.922878
vt 0.060702 0.077253
vt 0.071705 0.086972
vt 0.071705 0.913159
vt 0.944832 0.927317
vt 0.055676 0.927317
vt 0.060702 0.922878
vt 0.939806 0.922878
vt 0.944832 0.072814
vt 0.944832 0.927317
vt 0.939806 0.922878
vt 0.939806 0.077253
vt 0.055676 0.072814
vt 0.944832 0.072814
vt 0.939806 0.077253
vt 0.060702 0.077253
vt 0.055676 0.927317
vt 0.055676 0.072814
vt 0.060702 0.077253
vt 0.060702 0.922878
vt 0.985150 0.963087
vt 0.014850 0.963087
vt 0.014850 0.036913
vt 0.985150 0.036913
vn 0.000000 1.000000 0.000002
vn 0.000000 1.000000 0.000002
vn 0.000000 1.000000 0.000002
vn 0.000000 1.000000 0.000002
vn 0.000000 -1.000000 0.000002
vn 0.000000 -1.000000 0.000002
vn 0.000000 -1.000000 0.000002
vn 0.000000 -1.000000 0.000002
vn 1.000000 0.000000 -0.000001
vn 1.000000 0.000000 -0.000001
vn 1.000000 0.000000 -0.000001
vn 1.000000 0.000000 -0.000001
vn -1.000000 0.000000 -0.000001
vn -1.000000 0.000000 -0.000001
vn -1.000000 0.000000 -0.000001
vn -1.000000 0.000000 -0.000001
vn 0.000000 -0.723004 0.690843
vn 0.000000 -0.723004 0.690843
vn 0.000000 -0.622436 0.782671
vn 0.000000 -0.622436 0.782671
vn 0.678800 0.000000 0.734323
vn 0.678800 0.000000 0.734323
vn 0.554865 0.000000 0.831941
vn 0.554865 0.000000 0.831941
vn 0.000000 0.723004 0.690843
vn 0.000000 0.723004 0.690843
vn 0.000000 0.622436 0.782671
vn 0.000000 0.622436 0.782671
vn -0.678800 0.000000 0.734323
vn -0.678800 0.000000 0.734323
vn -0.554865 0.000000 0.831941
vn -0.554865 0.000000 0.831941
vn 0.000000 1.000000 0.000000
vn 0.000000 1.000000 0.000000
vn 0.000000 1.000000 0.000000
vn 0.000000 1.000000 0.000000
vn -1.000000 0.000000 0.000000
vn -1.000000 0.000000 0.000000
vn -1.000000 0.000000 0.000000
vn -1.000000 0.000000 0.000000
vn 0.000000 -1.000000 0.000000
vn 0.000000 -1.000000 0.000000
vn 0.000000 -1.000000 0.000000
vn 0.000000 -1.000000 0.000000
vn 1.000000 0.000000 0.000000
vn 1.000000 0.000000 0.000000
vn 1.000000 0.000000 0.000000
vn 1.000000 0.000000 0.000000
vn 0.000000 -0.420347 0.907363
vn 0.000000 -0.420347 0.907363
vn 0.000000 -0.236111 0.971726
vn 0.000000 -0.236111 0.971726
vn -0.378710 0.000000 0.925516
vn -0.378710 0.000000 0.925516
vn -0.182577 0.000000 0.983192
vn -0.182577 0.000000 0.983192
vn 0.000000 0.420347 0.907363
vn 0.000000 0.420347 0.907363
vn 0.000000 0.236111 0.971726
vn 0.000000 0.236111 0.971726
vn 0.378710 0.000000 0.925516
vn 0.378710 0.000000 0.925516
vn 0.182577 0.000000 0.983192
vn 0.182577 0.000000 0.983192
vn 0.000000 -0.269911 0.962885
vn 0.000000 -0.269911 0.962885
vn 0.000000 -0.723004 0.690844
vn 0.000000 -0.723004 0.690844
vn -0.265357 0.000000 0.964150
vn -0.265357 0.000000 0.964150
vn -0.678800 0.000000 0.734323
vn -0.678800 0.000000 0.734323
vn 0.000000 0.269911 0.962885
vn 0.000000 0.269911 0.962885
vn 0.000000 0.723004 0.690844
vn 0.000000 0.723004 0.690844
vn 0.265357 0.000000 0.964150
vn 0.265357 0.000000 0.964150
vn 0.678800 0.000000 0.734323
vn 0.678800 0.000000 0.734323
vn 0.000000 0.000000 1.000000
vn 0.000000 0.000000 1.000000
vn 0.000000 0.000000 1.000000
vn 0.000000 0.000000 1.000000
vn 0.000000 0.000000 1.000000
vn 0.000000 0.000000 1.000000
vn 0.000000 0.000000 1.000000
vn 0.000000 0.000000 1.000000
vn 0.000000 0.000000 1.000000
vn 0.000000 0.000000 1.000000
vn 0.000000 0.000000 1.000000
vn 0.000000 0.000000 1.000000
vn 0.000000 0.000000 1.000000
vn 0.000000 0.000000 1.000000
vn 0.000000 0.000000 1.000000
vn 0.000000 0.000000 1.000000
vn 0.000000 0.476891 0.878963
vn 0.000000 0.476891 0.878963
vn 0.432169 0.000000 0.901793
vn 0.432169 0.000000 0.901793
vn 0.000000 -0.476891 0.878963
vn 0.000000 -0.476891 0.878963
vn -0.432169 0.000000 0.901793
vn -0.432169 0.000000 0.901793
vn 0.000000 0.000000 -1.000000
vn 0.000000 0.000000 -1.000000
vn 0.000000 0.000000 -1.000000
vn 0.000000 0.000000 -1.000000
s off
g pCube1
usemtl frame_initialShadingGroup
f 7/1/1 8/2/2 10/3/3 9/4/4
f 11/5/5 12/6/6 6/7/7 5/8/8
f 6/9/9 12/10/10 10/11/11 8/12/12
f 11/13/13 5/14/14 7/15/15 9/16/16
s 1
f 5/17/17 6/18/18 31/19/19 32/20/20
s 2
f 6/21/21 8/22/22 30/23/23 31/24/24
s 3
f 8/25/25 7/26/26 29/27/27 30/28/28
s 4
f 7/29/29 5/30/30 32/31/31 29/32/32
s off
f 13/33/33 14/34/34 18/35/35 17/36/36
f 14/37/37 15/38/38 19/39/39 18/40/40
f 15/41/41 16/42/42 20/43/43 19/44/44
f 16/45/45 13/46/46 17/47/47 20/48/48
s 5
f 22/49/49 21/50/50 37/51/51 38/52/52
s 6
f 23/53/53 22/54/54 38/55/55 39/56/56
s 7
f 24/57/57 23/58/58 39/59/59 40/60/60
s 8
f 21/61/61 24/62/62 40/63/63 37/64/64
s 3
f 26/65/65 25/66/66 21/67/67 22/68/68
s 2
f 27/69/69 26/70/70 22/71/71 23/72/72
s 1
f 28/73/73 27/74/74 23/75/75 24/76/76
s 4
f 25/77/77 28/78/78 24/79/79 21/80/80
s 3
f 30/81/28 29/82/27 25/83/66 26/84/65
s 2
f 31/85/24 30/86/23 26/87/70 27/88/69
s 1
f 32/89/20 31/90/19 27/91/74 28/92/73
s 4
f 29/93/32 32/94/31 28/95/78 25/96/77
s off
f 34/97/81 33/98/82 16/99/83 15/100/84
f 35/101/85 34/102/86 15/103/87 14/104/88
f 36/105/89 35/106/90 14/107/91 13/108/92
f 33/109/93 36/110/94 13/111/95 16/112/96
s 5
f 38/113/52 37/114/51 33/115/97 34/116/98
s 6
f 39/117/56 38/118/55 34/119/99 35/120/100
s 7
f 40/121/60 39/122/59 35/123/101 36/124/102
s 8
f 37/125/64 40/126/63 36/127/103 33/128/104
s off
f 41/129/105 42/130/106 43/131/107 44/132/108
g default
v -12.441622 -11.992923 0.144970
v 12.441622 -11.992923 0.144970
v 12.441622 11.992923 0.144970
v -12.441622 11.992923 0.144970
vt 0.071705 0.086972
vt 0.928803 0.086972
vt 0.928803 0.913159
vt 0.071705 0.913159
vn 0.000000 0.000000 1.000000
vn 0.000000 0.000000 1.000000
vn 0.000000 0.000000 1.000000
vn 0.000000 0.000000 1.000000
s off
g polySurface1
usemtl frame_initialShadingGroup
f 45/133/109 46/134/110 47/135/111 48/136/112
